<svg t="1718728777905" viewBox="0 0 1024 1024" version="1.1"
    xmlns="http://www.w3.org/2000/svg" p-id="12335">
    <path
        d="M512 883.2A371.2 371.2 0 1 0 140.8 512 371.2 371.2 0 0 0 512 883.2z m0 64a435.2 435.2 0 1 1 435.2-435.2 435.2 435.2 0 0 1-435.2 435.2z"
        p-id="12336"></path>
    <path
        d="M557.056 512l122.368 122.368a31.744 31.744 0 1 1-45.056 45.056L512 557.056l-122.368 122.368a31.744 31.744 0 1 1-45.056-45.056L466.944 512 344.576 389.632a31.744 31.744 0 1 1 45.056-45.056L512 466.944l122.368-122.368a31.744 31.744 0 1 1 45.056 45.056z"
        p-id="12337"></path>
</svg>