<svg t="1718705895470" viewBox="0 0 1024 1024" version="1.1"
    xmlns="http://www.w3.org/2000/svg" p-id="55938">
    <path
        d="M272.5 379.4c0-108.9 37.1-209.1 99.2-288.8-148 74.5-249.5 227.6-249.5 404.5 0 250 202.7 452.7 452.7 452.7 117.3 0 224.2-44.6 304.6-117.8-43.2 13-88.9 20.1-136.3 20.1-260 0-470.7-210.7-470.7-470.7z"
        p-id="55939"></path>
    <path
        d="M574.9 955.5c-253.8 0-460.4-206.5-460.4-460.4 0-175 97.2-332.6 253.7-411.3l30.2-15.2-20.8 26.7c-63.8 82-97.5 180.2-97.5 284.1 0 255.4 207.8 463.1 463.1 463.1 45.5 0 90.6-6.7 134.1-19.8l32.2-9.7-24.9 22.7c-84.9 77.2-194.9 119.8-309.7 119.8zM345.5 113.6c-133.9 80.3-215.8 223.6-215.8 381.5 0 245.4 199.7 445.1 445.1 445.1 99.8 0 195.9-33.3 273.9-94.3-34.6 7.8-70 11.8-105.6 11.8-263.8 0-478.4-214.6-478.4-478.4 0.1-95.8 27.9-187 80.8-265.7z"
        p-id="55940"></path>
</svg>