<svg viewBox="0 0 1024 1024" version="1.1" xmlns="http://www.w3.org/2000/svg">
    <path d="M512 58.181818A453.818182 453.818182 0 1 1 58.181818 512 454.516364 454.516364 0 0 1 512 58.181818M763.112727 512a30.952727 30.952727 0 0 0-2.327272-11.170909 13.963636 13.963636 0 0 0-2.094546-3.025455 23.272727 23.272727 0 0 0-4.189091-6.283636l-152.669091-152.901818a29.090909 29.090909 0 0 0-41.192727 41.192727l103.098182 103.098182H286.254545a29.090909 29.090909 0 1 0 0 58.181818h377.483637l-103.098182 103.098182a29.323636 29.323636 0 0 0 21.178182 49.803636 30.021818 30.021818 0 0 0 20.712727-8.610909l152.669091-152.901818a28.16 28.16 0 0 0 8.610909-20.48zM512 0a512 512 0 1 0 512 512A512 512 0 0 0 512 0z"></path>
</svg>
