<svg t="1720326264191" viewBox="0 0 1024 1024" version="1.1" xmlns="http://www.w3.org/2000/svg"
    p-id="93484">
    <path
        d="M434.54686 1007.264369m-16.538351 0a16.538352 16.538352 0 1 0 33.076703 0 16.538352 16.538352 0 1 0-33.076703 0Z"
        p-id="93485"></path>
    <path
        d="M907.858734 176.015314L736.962433 4.725243a16.144581 16.144581 0 0 0-10.238027-4.725243H177.808639A66.940947 66.940947 0 0 0 110.867692 66.940947v889.920827A66.940947 66.940947 0 0 0 177.808639 1023.802721h189.009734a16.932122 16.932122 0 1 0 0-33.470473H177.808639a33.470474 33.470474 0 0 1-33.470473-33.470474V66.940947A33.470474 33.470474 0 0 1 177.808639 33.470474h540.646591l138.213368 138.213367H740.900136V102.380272a16.932122 16.932122 0 1 0-33.470474 0v85.841921a16.538352 16.538352 0 0 0 16.538352 16.538351h171.290071a16.538352 16.538352 0 0 0 16.932122-16.538351 15.750811 15.750811 0 0 0-4.331473-12.206879zM912.977747 271.701491a16.932122 16.932122 0 0 0-33.470473 0v685.160283a33.470474 33.470474 0 0 1-33.864244 33.470474H501.094037a16.932122 16.932122 0 0 0 0 33.470473h344.548993a67.334717 67.334717 0 0 0 67.334717-66.940947V271.701491z"
        p-id="93486"></path>
    <path
        d="M512.513375 731.625175a16.932122 16.932122 0 0 1-8.662946-2.362621l-150.026476-86.235691A17.719662 17.719662 0 0 1 347.129859 630.032444v-173.258922a16.538352 16.538352 0 0 1 8.662946-14.569501L504.63797 354.39325a18.507203 18.507203 0 0 1 16.932122 0l150.026475 86.23569a17.325892 17.325892 0 0 1 8.269176 14.569501v173.258922a16.538352 16.538352 0 0 1-8.662946 14.5695l-149.632705 87.023231a16.538352 16.538352 0 0 1-9.056717 1.575081z m-133.488124-113.012069l133.094354 76.391434 133.094354-78.754056v-153.570408l-133.881895-74.816353-132.700583 78.754056z"
        p-id="93487"></path>
    <path
        d="M511.725835 616.250484A73.241272 73.241272 0 1 1 583.392025 543.009212a73.635042 73.635042 0 0 1-71.66619 73.241272z m0-112.618299a39.377028 39.377028 0 1 0 39.377027 39.377027 39.377028 39.377028 0 0 0-39.377027-39.377027z"
        p-id="93488"></path>
</svg>