<svg t="1720240264082" viewBox="0 0 1024 1024" version="1.1" xmlns="http://www.w3.org/2000/svg"
    p-id="184675">
    <path
        d="M705.31105 208.211293m0-6.273787l0-20.781918q0-6.273787 6.273786-6.273786l191.350492 0q6.273787 0 6.273787 6.273786l0 20.781918q0 6.273787-6.273787 6.273787l-191.350492 0q-6.273787 0-6.273786-6.273787Z"
        p-id="184676"></path>
    <path
        d="M738.640541 208.211293m-6.273786 0l-20.781919 0q-6.273787 0-6.273786-6.273787l0-106.26226q0-6.273787 6.273786-6.273787l20.781919 0q6.273787 0 6.273786 6.273787l0 106.26226q0 6.273787-6.273786 6.273787Z"
        p-id="184677"></path>
    <path
        d="M915.938376 190.879542m-4.436237 4.436237l-14.695035 14.695035q-4.436237 4.436237-8.872475 0l-184.935632-184.935632q-4.436237-4.436237 0-8.872474l14.695035-14.695036q4.436237-4.436237 8.872475 0l184.935632 184.935633q4.436237 4.436237 0 8.872474Z"
        p-id="184678"></path>
    <path d="M432.793444 1006.942751m-16.46869 0a16.46869 16.46869 0 1 0 32.93738 0 16.46869 16.46869 0 1 0-32.93738 0Z"
        p-id="184679"></path>
    <path
        d="M365.350238 990.474061H177.13664a33.329491 33.329491 0 0 1-33.329492-33.721603V70.972211A33.721603 33.721603 0 0 1 177.13664 39.211166h546.603658V4.313228H177.13664A66.658983 66.658983 0 0 0 110.477657 70.972211V956.752458a67.051094 67.051094 0 0 0 66.658983 67.051094h188.213598a16.860802 16.860802 0 1 0 0-33.329491zM909.209115 274.478164a16.860802 16.860802 0 0 0-33.329492 0v682.274294a33.329491 33.329491 0 0 1-33.721603 33.721603H499.060315a16.860802 16.860802 0 0 0 0 33.329491h343.097705a67.443206 67.443206 0 0 0 67.051095-67.051094V274.478164z"
        p-id="184680"></path>
    <path
        d="M513.176335 746.972718a217.621973 217.621973 0 0 0 32.153156-2.744782 304.27865 304.27865 0 0 0 99.204251-230.169546 305.062874 305.062874 0 0 0-99.204251-230.561658 288.202072 288.202072 0 0 0-32.153156-2.744781 280.359839 280.359839 0 0 1 115.280829 233.306439 279.967727 279.967727 0 0 1-115.280829 232.914328zM502.58932 746.972718a218.406196 218.406196 0 0 1-31.761045-1.960558 304.27865 304.27865 0 0 1-99.20425-230.169546 305.062874 305.062874 0 0 1 99.20425-231.345882 287.417849 287.417849 0 0 1 31.761045-2.744781 279.967727 279.967727 0 0 0-115.67294 233.306439A279.183504 279.183504 0 0 0 502.58932 746.972718z"
        p-id="184681"></path>
    <path
        d="M509.64733 656.787036a250.559353 250.559353 0 0 0-140.375975 43.132282c4.70534 3.529005 9.41068 7.05801 14.508131 10.194904a232.130104 232.130104 0 0 1 252.1278 0c5.097452-3.136893 9.802792-6.665898 14.508131-10.194904a250.951464 250.951464 0 0 0-140.768087-43.132282zM509.64733 370.937633a247.422459 247.422459 0 0 1-140.375975-43.132283l15.684466-9.802791a235.266998 235.266998 0 0 0 125.867844 36.858496 235.266998 235.266998 0 0 0 126.259955-36.858496l14.508132 9.802791a247.814571 247.814571 0 0 1-141.944422 43.132283zM263.793317 505.824045h479.160452v16.076578H263.793317z"
        p-id="184682"></path>
    <path
        d="M733.150978 403.482901a8.626457 8.626457 0 0 0-11.371238 0 7.842233 7.842233 0 0 0-1.960559 10.194903 228.6011 228.6011 0 0 1 24.310923 103.517479 232.914328 232.914328 0 0 1-233.306439 232.914328A241.932896 241.932896 0 0 1 306.533489 627.378661a7.842233 7.842233 0 0 0-7.450122-5.489564 8.234345 8.234345 0 0 0-8.234345 8.234345 11.371238 11.371238 0 0 0 0 3.529005 245.461901 245.461901 0 0 0 218.798308 129.788961 248.990906 248.990906 0 0 0 223.503648-359.566395zM291.241134 595.225504a223.89576 223.89576 0 0 1-14.508132-81.167114 232.914328 232.914328 0 0 1 412.109358-149.002432 7.842233 7.842233 0 0 0 12.547573-9.802791 245.069789 245.069789 0 0 0-190.95838-89.401459 248.990906 248.990906 0 0 0-248.990906 249.383017 274.478164 274.478164 0 0 0 15.292355 86.264566 8.234345 8.234345 0 0 0 16.076578 0 11.371238 11.371238 0 0 0-1.568446-6.273787z"
        p-id="184683"></path>
    <path d="M712.36906 381.524648m-8.234345 0a8.234345 8.234345 0 1 0 16.46869 0 8.234345 8.234345 0 1 0-16.46869 0Z"
        p-id="184684"></path>
    <path d="M498.668203 270.164936h17.252914v483.865792H498.668203z" p-id="184685"></path>
</svg>