<svg viewBox="0 0 1474 1024" version="1.1" xmlns="http://www.w3.org/2000/svg">
    <path
        d="M233.450777 244.062176C297.119171 95.502591 440.373057 0 604.849741 0c106.11399 0 206.92228 42.445596 286.507772 116.725389 26.528497-10.611399 53.056995-15.917098 84.891192-15.917099 95.502591 0 175.088083 53.056995 212.227979 137.948187 159.170984 0 286.507772 127.336788 286.507772 286.507772s-127.336788 286.507772-286.507772 286.507772h-148.559586v-79.585493h148.559586c116.725389 0 206.92228-95.502591 206.92228-206.922279s-90.196891-201.61658-206.92228-201.616581c-21.222798 0-42.445596 0-63.668394 5.3057 0-79.585492-68.974093-148.559585-148.559585-148.559586-42.445596 0-79.585492 15.917098-106.11399 37.139897-58.362694-79.585492-153.865285-137.948187-265.284974-137.948187-148.559585 0-275.896373 106.11399-313.036269 244.062176h-5.3057c-111.419689 0-206.92228 90.196891-206.92228 201.616581s90.196891 206.92228 196.310881 206.922279h153.865285v79.585493H275.896373c-153.865285 0-275.896373-132.642487-275.896373-286.507772 0-137.948187 100.80829-254.673575 233.450777-281.202073z"></path>
    <path
        d="M832.994819 663.212435h95.50259l-191.005181 222.839378V376.704663h95.502591zM684.435233 673.823834v350.176166h-100.80829v-286.507772H493.430052l191.005181-222.839378z"></path>
</svg>
