<svg t="1751966395551" viewBox="0 0 1389 1024" version="1.1" xmlns="http://www.w3.org/2000/svg" p-id="31992">
<path d="M1058.4285716796871 820.1214283203125V351.28571416015626a32.142857519531255 32.142857519531255 0 1 0-64.28571416015626 0v468.83571416015616l-132.4285716796875-132.42857080078124a32.142857519531255 32.142857519531255 0 0 0-45.51428583984375 45.38571416015625l181.86428583984375 181.86428583984375a32.142857519531255 32.142857519531255 0 0 0 28.221428320312498 8.93571416015625 32.142857519531255 32.142857519531255 0 0 0 28.285714160156246-9l181.8-181.8a32.142857519531255 32.142857519531255 0 0 0-45.45-45.45l-132.492856640625 132.42857080078124zM62 94.14285751953128A32.142857519531255 32.142857519531255 0 0 1 93.88571416015623 62h964.8000000000001a32.142857519531255 32.142857519531255 0 0 1 0 64.28571416015626H93.88571416015623A32.33571416015626 32.33571416015626 0 0 1 62 94.14285751953128z m0 385.7142849609375c0-17.742857519531253 14.78571416015625-32.142857519531255 32.20714248046875-32.142856640625H737c17.807142480468748 0 32.20714248046875 14.91428583984375 32.20714248046875 32.142856640625 0 17.742857519531253-14.78571416015625 32.142857519531255-32.20714248046875 32.142857519531255H94.14285751953128A32.5285716796875 32.5285716796875 0 0 1 62 479.8571424804688z m0 385.71428583984374c0-17.742857519531253 14.78571416015625-32.142857519531255 32.20714248046875-32.142856640625H737c17.807142480468748 0 32.20714248046875 14.91428583984375 32.20714248046875 32.142856640625 0 17.742857519531253-14.78571416015625 32.142857519531255-32.20714248046875 32.142857519531255H94.14285751953128A32.5285716796875 32.5285716796875 0 0 1 62 865.5714283203125z" p-id="31993"></path>
</svg>