<svg t="1718905130493" viewBox="0 0 1024 1024" version="1.1"
     xmlns="http://www.w3.org/2000/svg" p-id="132370">
    <path
            d="M809.6 960H214.4c-35.2 0-64-28.8-64-64V128c0-35.2 28.8-64 64-64H640c12.8 0 22.4 9.6 22.4 22.4v192h192c12.8 0 22.4 9.6 22.4 22.4V896c-3.2 35.2-32 64-67.2 64zM214.4 105.6c-12.8 0-22.4 9.6-22.4 22.4v768c0 12.8 9.6 22.4 22.4 22.4h598.4c12.8 0 22.4-9.6 22.4-22.4V320h-192c-12.8 0-22.4-9.6-22.4-22.4v-192H214.4z"
            p-id="132371"></path>
    <path
            d="M854.4 320c-6.4 0-9.6-3.2-16-6.4l-214.4-214.4c-9.6-9.6-9.6-22.4 0-28.8 9.6-9.6 22.4-9.6 28.8 0l214.4 214.4c9.6 9.6 9.6 22.4 0 28.8-3.2 3.2-9.6 6.4-12.8 6.4zM534.4 736c-12.8 0-22.4-9.6-22.4-22.4v-224c0-9.6 3.2-16 12.8-19.2l128-64c9.6-6.4 22.4 0 28.8 9.6s0 22.4-9.6 28.8l-115.2 57.6v211.2c-3.2 12.8-12.8 22.4-22.4 22.4z"
            p-id="132372"></path>
    <path
            d="M448 809.6c-57.6 0-105.6-48-105.6-105.6s48-105.6 105.6-105.6 105.6 48 105.6 105.6-48 105.6-105.6 105.6z m0-169.6c-35.2 0-64 28.8-64 64s28.8 64 64 64 64-28.8 64-64-28.8-64-64-64z"
            p-id="132373"></path>
</svg>