<svg t="1718905838739" viewBox="0 0 1024 1024" version="1.1"
     xmlns="http://www.w3.org/2000/svg" p-id="160886">
    <path
            d="M539.592 88c3.491 0 6.892 0.389 10.16 1.125a29.813 29.813 0 0 1 19.4 7.769l0.574 0.535 299.147 286.514a30.11 30.11 0 0 1 3.384 3.841c7.895 8.26 12.743 19.457 12.743 31.784v420.874C885 910.338 828.326 967 758.415 967h-494.83C193.674 967 137 910.338 137 840.442V214.558C137 144.662 193.674 88 263.585 88h276.007z m-13.81 59.827H263.586c-36.494 0-66.147 29.282-66.736 65.627l-0.009 1.104v625.884c0 36.486 29.288 66.133 65.64 66.722l1.105 0.009h494.83c36.494 0 66.147-29.282 66.736-65.627l0.009-1.104V433.373l-205.014 0.002c-51.594 0-93.517-41.399-94.35-92.783l-0.013-1.56V147.827z m-35.625 623.584c10.029 0 18.625 2.864 25.311 9.546 6.687 6.204 10.03 14.318 10.03 24.34 0 10.024-3.821 18.137-10.507 24.82-6.686 6.204-15.283 9.545-24.834 9.545-9.552 0-18.149-3.341-24.835-10.023-6.686-6.682-10.029-14.796-10.029-24.341 0-10.023 3.343-18.137 10.03-24.341 6.685-6.682 15.282-9.546 24.834-9.546z m8.596-310.641c30.565 0 55.4 8.113 74.503 25.295 19.103 16.705 28.655 39.614 28.655 68.251 0 23.387-6.209 42.955-18.148 58.228-4.299 5.25-17.67 17.66-40.117 37.228-9.074 7.636-15.76 16.227-20.059 24.818-5.253 9.546-7.641 20.046-7.641 31.5v14.613c0 14.111-11.44 25.55-25.55 25.55-14.112 0-25.551-11.439-25.551-25.55V706.09c0-17.659 2.865-32.932 9.551-45.341 6.209-13.364 24.357-32.932 53.967-59.182l8.119-9.069c8.597-10.977 13.372-22.432 13.372-34.841 0-16.705-4.775-29.591-13.85-39.137-9.551-9.545-23.401-14.318-40.594-14.318-21.491 0-37.251 6.682-46.803 20.523-7.755 10.333-12.012 24.55-12.771 42.65-0.012 0.278-0.023 0.897-0.033 1.859-0.15 13.791-11.372 24.892-25.164 24.892-13.808 0-25.002-11.194-25.002-25.002l0.001-0.26c0.006-0.534 0.011-0.895 0.017-1.082 1.033-32.158 11.033-57.513 29.999-76.467 20.058-20.523 47.758-30.545 83.1-30.545z m86.869-265.266l0.001 143.528c0 19.062 15.456 34.515 34.523 34.515h151.37L585.622 195.504z"
            p-id="160887"></path>
</svg>