<svg t="1721390644766" viewBox="0 0 1024 1024" version="1.1" xmlns="http://www.w3.org/2000/svg"
    p-id="40064">
    <path
        d="M394.666667 789.333333a32 32 0 0 1 0 64h-277.333334a32 32 0 0 1 0-64h277.333334z m213.333333-298.666666a32 32 0 0 1 0 64h-490.666667a32 32 0 0 1 0-64h490.666667z m298.666667-320a32 32 0 0 1 0 64h-789.333334a32 32 0 0 1 0-64h789.333334zM947.413333 489.066667a32 32 0 0 1 0 45.226666l-316.8 316.8a32 32 0 0 1-49.749333-5.674666l-136.405333-122.837334a32 32 0 0 1 42.837333-47.573333l120.448 108.437333 294.4-294.4a32 32 0 0 1 45.269333 0z"
        p-id="40065"></path>
</svg>