<svg t="1720241556507" viewBox="0 0 1024 1024" version="1.1" xmlns="http://www.w3.org/2000/svg"
    p-id="22293">
    <path
        d="M928.631118 251.325055l-20.195764-20.195764-10.471877-10.471877-5.235939-5.235938L715.453616 40.391527 710.217677 35.155588 699.7458 24.683711S698.249817 23.187728 697.501826 23.187728L678.802045 4.487947S671.322133 0 667.582177 0H155.956172a71.807159 71.807159 0 0 0-24.68371 4.487947C123.792549 7.479912 116.312637 12.715851 110.328707 17.95179 104.344777 23.93572 99.85683 30.667641 96.116874 38.895544c-2.991965 7.479912-5.235939 16.455807-5.235939 24.683711v896.093499c0 8.227904 1.495982 16.455807 5.235939 24.683711a62.756465 62.756465 0 0 0 35.155588 34.407596c7.479912 2.991965 16.455807 4.487947 24.68371 4.487948h712.087656c8.227904 0 16.455807-1.495982 24.68371-4.487948 7.479912-2.991965 14.959825-8.227904 20.943755-13.463842 5.98393-5.98393 10.471877-12.715851 14.211833-20.943754 2.991965-7.479912 5.235939-16.455807 5.235939-24.683711V261.796932c0-3.739956-1.495982-7.479912-4.487947-10.471877z m-213.177502-59.839299V97.986852l118.182615 116.686632H715.453616v-23.187728z m176.525931 767.439007s0 5.98393-1.495982 8.975894a26.927684 26.927684 0 0 1-12.715851 12.715851c-2.991965 1.495982-5.98393 1.495982-8.975895 1.495983H155.956172s-5.98393 0-8.975894-1.495983a26.927684 26.927684 0 0 1-12.715851-12.715851c-1.495982-2.991965-1.495982-5.98393-1.495983-8.975894V64.327246s0-5.98393 1.495983-8.975895A26.927684 26.927684 0 0 1 146.980278 42.6355C149.972243 41.139518 152.964207 41.139518 155.956172 41.139518h501.154127l17.203799 17.203798v168.298028c0 16.455807 12.715851 29.171658 29.171658 29.171658h171.289993l17.203798 17.203799v686.655953z"
        p-id="22294"></path>
    <path
        d="M356.417823 578.945215c-8.975895-5.235939-26.927684-11.96786-58.343316-21.691745-25.431702-7.479912-32.911614-11.219869-35.155588-12.715851-9.723886-5.235939-11.219869-10.471877-11.219869-14.211834 0-7.479912 2.243974-11.96786 8.975895-14.959824 5.98393-2.991965 14.959825-5.235939 27.675676-5.235939 14.211833 0 23.93572 2.243974 31.415632 7.479912 5.98393 4.487947 10.471877 12.715851 12.715851 23.93572l1.495982 7.479912h50.115413V538.553689c-2.991965-26.179693-12.715851-45.627465-29.919649-58.343316-15.707816-11.96786-36.65157-17.95179-64.327247-17.95179-24.683711 0-45.627465 5.98393-62.083272 17.203798-18.699781 12.715851-27.675676 29.919649-27.675676 52.359387s9.723886 39.643535 29.171658 50.863404c6.731921 3.739956 21.691746 8.975895 50.863404 18.699781 29.919649 8.975895 38.147553 12.715851 41.139518 13.463842 13.463842 6.731921 14.959825 14.959825 14.959825 19.447772s-0.747991 9.723886-9.723886 14.211833c-8.227904 4.487947-20.195763 7.479912-33.659606 7.479913-15.707816 0-26.927684-2.991965-34.407596-8.227904-7.479912-5.235939-11.96786-15.707816-14.211834-29.919649l-1.495982-8.227904h-50.115413v9.723886c2.991965 29.919649 13.463842 52.359386 33.659605 66.57122 16.455807 11.219869 38.895544 17.203798 66.57122 17.203798s51.611395-5.98393 68.067203-17.951789c17.203798-12.715851 26.179693-30.667641 26.179693-52.359387s-10.471877-41.139518-32.163623-53.855369zM608.490869 661.972243c15.707816-20.943755 23.187728-47.123448 23.187729-78.53908 0-35.155588-9.723886-64.327246-29.171659-86.018992-20.195763-23.187728-48.61943-35.155588-83.775018-35.155588s-63.579255 11.96786-83.775018 35.155588c-19.447772 21.691746-29.171658 50.115413-29.171658 85.271001s9.723886 63.579255 29.171658 85.271c20.195763 23.187728 48.61943 35.155588 83.775018 35.155588 20.195763 0 38.147553-3.739956 53.855369-11.219868 5.98393 8.227904 11.96786 17.203798 18.699781 26.179693l5.98393 8.975895 35.155588-30.667641-4.487948-6.731921c-6.731921-9.723886-12.715851-18.699781-19.447772-26.927684z m-34.407597-41.88751c-7.479912-8.975895-15.707816-17.95179-23.187728-26.179693l-6.731921-6.731921-32.163623 31.415632 5.98393 6.731921c8.227904 8.975895 16.455807 17.95179 23.935719 26.927684-6.731921 2.243974-14.959825 3.739956-23.187728 3.739957-20.195763 0-35.155588-5.98393-45.627465-19.447772-10.471877-12.715851-15.707816-30.667641-15.707816-53.107378s5.235939-40.391527 15.707816-53.855369c10.471877-13.463842 25.431702-19.447772 45.627465-19.447772s35.155588 5.98393 45.627465 18.699781c10.471877 13.463842 16.455807 31.415632 16.455808 54.60336 0 14.211833-2.243974 26.179693-5.98393 36.65157zM712.461651 467.494522h-51.611395v231.877282h169.046019v-46.375456H712.461651V467.494522z"
        p-id="22295"></path>
</svg>