<svg t="1720242198271" viewBox="0 0 1024 1024" version="1.1" xmlns="http://www.w3.org/2000/svg"
    p-id="30084">
    <path
        d="M392.7 767.9c-3.4 3.4-8.6 3.4-12 0l-122-122c-3.4-3.4-3.4-8.6 0-12l122-122c3.4-3.4 8.6-3.4 12 0l13.1 13.1c3.4 3.4 3.4 8.6 0 12L303 639.9l102.9 102.9c3.4 3.4 3.4 8.6 0 12l-13.2 13.1z m70.2 45.5c-1.3 4.5-6 7.1-10.2 5.8l-16.2-4.5c-4.4-1.3-7.1-6-5.8-10.5l97.6-338c1.3-4.5 6-7.1 10.2-5.8l16.2 4.5c4.4 1.3 7.1 6 5.8 10.5l-97.6 338z m147.6-45.5c-3.4 3.4-8.6 3.4-12 0l-13.1-13.1c-3.4-3.4-3.4-8.6 0-12l102.9-102.9L585.4 537c-3.4-3.4-3.4-8.6 0-12l13.1-13.1c3.4-3.4 8.6-3.4 12 0l122 122c3.4 3.4 3.4 8.6 0 12l-122 122z"
        fill="#676E73" p-id="30085"></path>
    <path
        d="M867.2 264.4c-19.4-26.5-46.5-57.5-76.3-87.3-29.8-29.8-60.7-56.9-87.3-76.3-45.1-33.1-67-36.9-79.6-36.9H189.9c-38.6 0-70 31.4-70 70v756.2c0 38.6 31.4 70 70 70h644.2c38.6 0 70-31.4 70-70V344c0-12.6-3.8-34.5-36.9-79.6zM680 153.2c20.1 15.6 44.4 36.7 71.2 63.5 26.9 26.9 48 51.1 63.5 71.2H680V153.2z m168.1 736.9c0 7.6-6.4 14-14 14H189.9c-7.6 0-14-6.4-14-14V133.9c0-7.6 6.4-14 14-14H624V316c0 15.5 12.5 28 28 28h196.1v546.1z"
        fill="#676E73" p-id="30086"></path>
</svg>