<svg t="1732036906294" class="icon" viewBox="0 0 1024 1024" version="1.1" xmlns="http://www.w3.org/2000/svg" p-id="149613"><path d="M512.333 111.471c-121.6 0-220.1 100-220.1 223.3v87.6c0 17.6 14 31.9 31.4 31.9 11 0 21.2-5.8 26.9-15.4v-110.9c0.3-87.9 70.4-159.1 157.1-159.4h8.5c86.6 0.3 156.8 71.5 157.1 159.4v109.5c8.3 15.5 27.5 21.2 42.7 12.7 10.1-5.6 16.3-16.2 16.4-27.9v-87.6c0-123.3-98.5-223.2-220-223.2z" p-id="149614"></path><path d="M758.033 401.071h-491.4c-52.1 0-94.3 42.8-94.3 95.6v319.1c0 52.8 42.2 95.7 94.3 95.7h491.5c52.1 0 94.3-42.8 94.3-95.6v-319.1c-0.1-52.8-42.4-95.6-94.4-95.7z m42.7 419.3c0 20.7-16.6 37.4-36.9 37.5h-503c-20.4-0.1-36.9-16.8-37-37.5v-328.2c0.1-20.7 16.6-37.4 37-37.5h502.9c20.4 0.1 36.9 16.8 36.9 37.5v328.2z" p-id="149615"></path><path d="M484.133 584.871h56.3v142.9h-56.3v-142.9z" p-id="149616"></path></svg>