<svg t="1722311293439" viewBox="0 0 1024 1024" version="1.1" xmlns="http://www.w3.org/2000/svg"
    p-id="33584">
    <path d="M960 256v192h-64V320H128v576h384v64H64V256h896z" p-id="33585"></path>
    <path
        d="M916.16 707.2a28.8 28.8 0 0 1 41.216 1.472 30.08 30.08 0 0 1 0 40.448l-171.84 174.848-20.672 20.928-20.608-20.928-171.776-174.848a30.08 30.08 0 0 1-1.472-41.92 28.8 28.8 0 0 1 42.688 0l122.048 124.16V477.696A29.44 29.44 0 0 1 764.8 448a29.44 29.44 0 0 1 29.184 29.632v353.728l122.112-124.16z"
        p-id="33586"></path>
    <path d="M448 64v256H64V64h384zM384 128H128v128h256V128z" p-id="33587"></path>
</svg>