<svg t="1718904669744" viewBox="0 0 1024 1024" version="1.1"
     xmlns="http://www.w3.org/2000/svg" p-id="105650" fill="#00">
    <path
            d="M864.711111 136.533333 159.288889 136.533333C121.582933 136.533333 91.022222 167.094044 91.022222 204.8l0 614.4c0 37.705956 30.560711 68.266667 68.266667 68.266667l705.422222 0c37.705956 0 68.266667-30.560711 68.266667-68.266667L932.977778 204.8C932.977778 167.094044 902.417067 136.533333 864.711111 136.533333zM887.466667 796.444444c0 25.122133-20.388978 45.511111-45.511111 45.511111L182.044444 841.955556c-25.122133 0-45.511111-20.388978-45.511111-45.511111L136.533333 227.555556c0-25.122133 20.388978-45.511111 45.511111-45.511111l659.911111 0c25.122133 0 45.511111 20.388978 45.511111 45.511111L887.466667 796.444444z"
            p-id="105651"></path>
    <path
            d="M688.378311 501.486933l3.777422 1.388089c0 0-263.554844-150.550756-263.554844-150.573511L386.844444 374.9888l-0.500622-3.731911c-1.4336 4.164267-1.592889 313.7536-0.386844 318.327467 3.2768 12.151467 15.724089 19.364978 27.898311 16.088178l3.003733-1.729422c2.844444-0.955733 5.370311-2.412089 7.5776-4.323556l263.964444-151.552c10.604089-2.844444 16.9984-12.765867 16.384-23.278933C705.376711 514.2528 698.9824 504.331378 688.378311 501.486933zM432.355556 644.323556 432.355556 405.208178l208.258844 119.580444L432.355556 644.323556z"
            p-id="105652"></path>
    <path d="M386.343822 371.256889a1.113 1.126 0 1 0 50.653867 0 1.113 1.126 0 1 0-50.653867 0Z"
          p-id="105653"></path>
</svg>