<svg t="1720331930422" viewBox="0 0 1024 1024" version="1.1" xmlns="http://www.w3.org/2000/svg"
    p-id="202441">
    <path
        d="M921.6 921.6a51.2 51.2 0 0 1-51.2 51.2H153.6a51.2 51.2 0 0 1-51.2-51.2V102.4a51.2 51.2 0 0 1 51.2-51.2h460.8l307.2 307.2v563.2zM256 102.4H153.6v819.2h716.8V409.6h-256a51.2 51.2 0 0 1-51.2-51.2V102.4H307.2v51.2H256V102.4z m51.2 409.6v51.2h51.2v153.6H256v-204.8h51.2z m51.2-51.2v51.2H307.2V460.8h51.2zM307.2 409.6v51.2H256V409.6h51.2z m51.2-51.2v51.2H307.2V358.4h51.2z m490.752 0L614.4 123.648V358.4h234.752zM307.2 307.2v51.2H256V307.2h51.2z m51.2-51.2v51.2H307.2V256h51.2zM307.2 204.8v51.2H256V204.8h51.2z m51.2-51.2v51.2H307.2V153.6h51.2z"
        p-id="202442"></path>
</svg>